<?xml version="1.0" standalone="no"?><!DOCTYPE svg PUBLIC "-//W3C//DTD SVG 1.1//EN" "http://www.w3.org/Graphics/SVG/1.1/DTD/svg11.dtd"><svg t="1582445413107" class="icon" viewBox="0 0 1024 1024" version="1.1" xmlns="http://www.w3.org/2000/svg" p-id="2476" xmlns:xlink="http://www.w3.org/1999/xlink" width="200" height="200"><defs><style type="text/css"></style></defs><path d="M559.2424 877.728l-98.272 0q-7.424 0-12.864-5.152t-5.44-13.152l0-188.576-164.576 0q-7.424 0-12.864-5.152t-5.44-13.152l0-58.848q0-7.424 5.44-12.864t12.864-5.44l164.576 0 0-48.576-164.576 0q-7.424 0-12.864-5.152t-5.44-13.152l0-59.424q0-7.424 5.44-12.864t12.864-5.44l122.272 0-183.424-330.272q-4.576-9.152 0-18.272 5.728-9.152 16-9.152l110.848 0q10.848 0 16.576 10.272l122.848 242.848q10.848 21.728 32 71.424 5.728-13.728 17.44-38.848t15.712-34.848l109.152-240q4.576-10.848 16.576-10.848l109.152 0q9.728 0 15.424 9.152 5.152 8 0.576 17.728l-178.848 330.848 122.848 0q7.424 0 12.864 5.44t5.44 12.864l0 59.424q0 8-5.44 13.152t-12.864 5.152l-165.728 0 0 48.576 165.728 0q7.424 0 12.864 5.44t5.44 12.864l0 58.848q0 8-5.44 13.152t-12.864 5.152l-165.728 0 0 188.576q0 7.424-5.44 12.864t-12.864 5.44z" p-id="2477"></path></svg>