<?xml version="1.0" standalone="no"?><!DOCTYPE svg PUBLIC "-//W3C//DTD SVG 1.1//EN" "http://www.w3.org/Graphics/SVG/1.1/DTD/svg11.dtd"><svg t="1582281548598" class="icon" viewBox="0 0 1024 1024" version="1.1" xmlns="http://www.w3.org/2000/svg" p-id="1710" xmlns:xlink="http://www.w3.org/1999/xlink" width="200" height="200"><defs><style type="text/css"></style></defs><path d="M517.54795 1024H507.852773a96.490097 96.490097 0 0 1-96.490097-96.490097 31.393907 31.393907 0 0 0-22.160405-30.008882 403.965717 403.965717 0 0 1-60.479439-24.930455 31.393907 31.393907 0 0 0-36.934009 5.540101 96.951772 96.951772 0 0 1-138.502531 0l-7.848477-7.848477a96.490097 96.490097 0 0 1 0-138.502532 31.393907 31.393907 0 0 0 5.540101-36.934008 405.350742 405.350742 0 0 1-24.930455-60.941114 31.393907 31.393907 0 0 0-30.008882-22.160405A96.951772 96.951772 0 0 1 0.010157 517.54241V507.847232a96.490097 96.490097 0 0 1 96.490097-97.875122 31.393907 31.393907 0 0 0 30.008882-22.160405 409.044143 409.044143 0 0 1 24.930455-60.941114 31.393907 31.393907 0 0 0-5.540101-36.934008 96.951772 96.951772 0 0 1 0-138.502532l7.848477-7.848477a98.798473 98.798473 0 0 1 138.502531 0 31.393907 31.393907 0 0 0 36.934009 5.540102 407.197443 407.197443 0 0 1 58.632738-22.62208 31.393907 31.393907 0 0 0 22.160405-30.008882A96.951772 96.951772 0 0 1 507.852773 0.004617h11.080202a96.490097 96.490097 0 0 1 95.105072 96.490097 31.393907 31.393907 0 0 0 22.160405 30.008882 407.659118 407.659118 0 0 1 60.941114 24.930455 31.393907 31.393907 0 0 0 36.934008-5.540101 98.798473 98.798473 0 0 1 138.502532 0l7.848476 7.848477a96.951772 96.951772 0 0 1 0 138.502531 31.393907 31.393907 0 0 0-5.540101 36.934009 399.810641 399.810641 0 0 1 24.930456 60.941114 31.393907 31.393907 0 0 0 30.008882 22.160405A96.490097 96.490097 0 0 1 1024.00554 507.847232v10.618528a96.490097 96.490097 0 0 1-96.490097 96.490097 31.393907 31.393907 0 0 0-30.008882 22.160405 396.578915 396.578915 0 0 1-24.930455 60.941114 31.393907 31.393907 0 0 0 5.540101 36.934008 96.490097 96.490097 0 0 1 0 138.502532l-7.848477 7.848477a96.490097 96.490097 0 0 1-138.502531 0 31.393907 31.393907 0 0 0-36.934009-5.540102 407.659118 407.659118 0 0 1-60.941114 24.930456 31.393907 31.393907 0 0 0-22.160405 30.008882 96.951772 96.951772 0 0 1-94.181721 93.258371z m-205.445422-220.219025a97.875122 97.875122 0 0 1 46.167511 10.618527 334.252776 334.252776 0 0 0 50.784261 21.237055 96.028422 96.028422 0 0 1 67.404565 92.335021 31.855582 31.855582 0 0 0 31.855583 31.855582h11.080202a31.855582 31.855582 0 0 0 31.393907-31.855582 96.028422 96.028422 0 0 1 67.404566-92.335021 335.637801 335.637801 0 0 0 50.784261-21.237055 96.028422 96.028422 0 0 1 112.187051 17.543654 31.855582 31.855582 0 0 0 46.16751 0l7.848477-7.848477a31.855582 31.855582 0 0 0 0-46.16751 96.490097 96.490097 0 0 1-17.543654-112.187051 335.176126 335.176126 0 0 0 21.237055-50.784261 96.028422 96.028422 0 0 1 92.335021-67.404566 31.855582 31.855582 0 0 0 31.855582-31.855582V507.847232a31.855582 31.855582 0 0 0-31.393907-31.855582 96.028422 96.028422 0 0 1-92.335021-67.404565 338.869527 338.869527 0 0 0-21.237055-50.784262A96.028422 96.028422 0 0 1 831.025346 244.230747a31.855582 31.855582 0 0 0 0-46.16751l-7.848477-7.848477a32.317257 32.317257 0 0 0-46.16751 0 96.028422 96.028422 0 0 1-112.187051 17.543654 331.944401 331.944401 0 0 0-50.784261-21.237055 96.028422 96.028422 0 0 1-67.404566-92.335021 31.855582 31.855582 0 0 0-31.393907-31.855582H507.852773a31.855582 31.855582 0 0 0-31.855583 31.855582 96.028422 96.028422 0 0 1-67.404565 92.335021 334.252776 334.252776 0 0 0-50.784262 21.237055 96.028422 96.028422 0 0 1-112.18705-17.081979 32.317257 32.317257 0 0 0-46.167511 0l-7.848476 7.848477a31.855582 31.855582 0 0 0 0 46.16751 96.028422 96.028422 0 0 1 17.543654 112.187051 341.639578 341.639578 0 0 0-21.237055 50.784262 96.028422 96.028422 0 0 1-92.335021 67.404565 31.855582 31.855582 0 0 0-31.855583 31.855582v10.618528a31.855582 31.855582 0 0 0 31.855583 31.855582 96.028422 96.028422 0 0 1 92.335021 67.404565 338.407852 338.407852 0 0 0 21.237055 50.784262 96.028422 96.028422 0 0 1-17.081979 112.18705 31.855582 31.855582 0 0 0 0 46.167511l7.848476 7.848477a31.855582 31.855582 0 0 0 46.167511 0 95.566747 95.566747 0 0 1 66.01954-30.008882z" fill="#ffffff" p-id="1711"></path><path d="M512.007849 692.517274a180.053291 180.053291 0 1 1 180.053291-180.053291 180.514966 180.514966 0 0 1-180.053291 180.053291z m0-295.472067a115.418776 115.418776 0 1 0 115.418776 115.418776 115.418776 115.418776 0 0 0-115.418776-115.880451z" fill="#ffffff" p-id="1712"></path></svg>