<?xml version="1.0" standalone="no"?><!DOCTYPE svg PUBLIC "-//W3C//DTD SVG 1.1//EN" "http://www.w3.org/Graphics/SVG/1.1/DTD/svg11.dtd"><svg t="1582445432990" class="icon" viewBox="0 0 1024 1024" version="1.1" xmlns="http://www.w3.org/2000/svg" p-id="3333" xmlns:xlink="http://www.w3.org/1999/xlink" width="200" height="200"><defs><style type="text/css"></style></defs><path d="M778.285714 677.142857q0 87.428571-56.857143 150.571429t-147.714286 78l0 100q0 8-5.142857 13.142857t-13.142857 5.142857l-77.142857 0q-7.428571 0-12.857143-5.428571t-5.428571-12.857143l0-100q-37.714286-5.142857-72.857143-17.714286t-58-25.428571-42.285714-27.428571-26.571429-21.428571-10-10.285714q-9.714286-12-1.142857-23.428571l58.857143-77.142857q4-5.714286 13.142857-6.857143 8.571429-1.142857 13.714286 5.142857l1.142857 1.142857q64.571429 56.571429 138.857143 71.428571 21.142857 4.571429 42.285714 4.571429 46.285714 0 81.428571-24.571429t35.142857-69.714286q0-16-8.571429-30.285714t-19.142857-24-33.428571-21.428571-37.714286-18.285714-45.714286-18.571429q-22.285714-9.142857-35.142857-14.285714t-35.142857-15.142857-35.714286-17.714286-32.285714-20.285714-30.571429-24.285714-24.857143-28-20.285714-33.142857-12-38-4.857143-44.571429q0-78.857143 56-138.285714t145.714286-76.571429l0-102.857143q0-7.428571 5.428571-12.857143t12.857143-5.428571l77.142857 0q8 0 13.142857 5.142857t5.142857 13.142857l0 100.571429q32.571429 3.428571 63.142857 13.142857t49.714286 19.142857 36.285714 21.428571 22.285714 16.571429 8.571429 8q9.714286 10.285714 2.857143 21.714286l-46.285714 83.428571q-4.571429 8.571429-13.142857 9.142857-8 1.714286-15.428571-4-1.714286-1.714286-8.285714-6.857143t-22.285714-15.142857-33.428571-18.285714-42.571429-14.857143-48.857143-6.571429q-54.285714 0-88.571429 24.571429t-34.285714 63.428571q0 14.857143 4.857143 27.428571t16.857143 23.714286 22.571429 18.857143 32 17.714286 34.571429 15.428571 40 15.714286q30.285714 11.428571 46.285714 18t43.428571 20 43.142857 24.285714 35.428571 28.571429 30.285714 36.285714 18 43.714286 7.428571 53.714286z" p-id="3334"></path></svg>