<?xml version="1.0" standalone="no"?><!DOCTYPE svg PUBLIC "-//W3C//DTD SVG 1.1//EN" "http://www.w3.org/Graphics/SVG/1.1/DTD/svg11.dtd"><svg t="1582445427252" class="icon" viewBox="0 0 1024 1024" version="1.1" xmlns="http://www.w3.org/2000/svg" p-id="3197" xmlns:xlink="http://www.w3.org/1999/xlink" width="200" height="200"><defs><style type="text/css"></style></defs><path d="M942.427421 234.839536a17.254917 17.254917 0 1 0-28.988261 18.715833 475.626037 475.626037 0 0 1 76.013661 258.559181c0 263.229511-214.145024 477.386038-477.386038 477.386038s-477.386038-214.156527-477.386038-477.386038 214.145024-477.386038 477.386038-477.386039a475.683553 475.683553 0 0 1 166.659492 29.908523 17.254917 17.254917 0 0 0 12.055436-32.335714 511.964892 511.964892 0 1 0 251.64571 202.538216z" fill="#333333" p-id="3198"></path><path d="M796.059711 128.365195a482.807533 482.807533 0 0 1 34.969965 28.562639 17.254917 17.254917 0 1 0 23.064073-25.663813c-11.963409-10.755565-24.571002-21.050999-37.47768-30.621726a17.256067 17.256067 0 1 0-20.556358 27.7229zM763.06831 334.400407v-121.934747h-499.242267v121.934747h184.052449v79.660201c-149.611634 6.729418-262.274739 36.223823-262.274739 71.607905s112.663105 64.878488 262.274739 71.607906V812.936773h131.137369V557.218903c149.03647-6.832947 261.124411-36.269836 261.124412-71.55039s-112.087941-64.728945-261.124412-71.550389v-79.717717z m20.7059 144.067054c0 23.271131-87.114325 42.792194-204.758349 48.210239l-7.603666 0.322091h-0.83974l-7.132032 0.264576h-0.77072q-7.948765 0.276079-16.104589 0.460131h-0.333595l-7.293078 0.149543h-2.059087l-5.751639 0.080522h-36.430882l-5.694122-0.080522h-1.978564l-6.798437-0.13804h-0.747713q-12.089945-0.276079-23.823289-0.73621h-0.10353l-7.787719-0.333595c-118.230692-5.337521-205.908677-24.927603-205.908677-48.313767s87.689488-42.91873 205.908677-48.313768v73.954574c20.521848 1.069805 42.35507 1.656472 64.993521 1.656472 23.006556 0 45.276902-0.59817 66.143849-1.713988v-73.678496c117.747554 5.406541 204.873382 24.939107 204.873381 48.210238z" fill="#333333" p-id="3199"></path></svg>